<?xml version="1.0" encoding="UTF-8"?>
<svg id="Layer_1" data-name="Layer 1" xmlns="http://www.w3.org/2000/svg" viewBox="0 0 241 241">
  <defs>
    <style>
      .cls-1 {
        fill: #0b0b0b;
      }

      .cls-2 {
        fill: #fff;
      }
    </style>
  </defs>
  <circle class="cls-1" cx="120.5" cy="120.5" r="120"/>
  <g>
    <path class="cls-2" d="M51.33,191.55c22.08-39.37,45.14-78.45,62.57-120.16,2.33-5.99,4.53-12.02,5.83-18.28.44-2.04,1.61-6.19,4.44-4.8,1.5,1.03,1.85,2.92,2.34,4.47.83,3.25,1.29,6.46,1.74,9.68,2.39,19.25,3.63,38.62,6.04,57.84,2.27,16.12,7.2,63.85,23.71,69.58,5.78,1.57,11.86-2.03,16.53-5.42,14.82-11.58,26.14-28.65,33.52-45.84,15.37-38.5-6.1-40.95-38.26-33.68-25.04,6.05-49.11,15.79-72.8,25.86-23.77,10.12-47.11,21.22-70.35,32.51,22.95-11.89,46.16-23.28,69.76-33.85,20.24-8.43,108.44-49.76,118.26-18.97,7.57,23.04-28.19,79.5-52.12,82.7-15.73,1.76-21.59-22.51-24.6-34.16-5.82-25.33-7.73-51.23-10.17-76.99-.99-9.55-1.53-19.29-3.57-28.63-.31-1.08-.57-2.27-1.22-3.06,0,0,.16.04.24.03.19-.08-.01,0-.15.24-.54.88-.84,1.96-1.09,3.01-1.39,6.4-3.71,12.54-6.12,18.55-17.8,41.53-41.5,80.56-64.51,119.38h0Z"/>
    <path class="cls-2" d="M196.53,193.68c2.41,0,2.42-3.75,0-3.75s-2.42,3.75,0,3.75h0Z"/>
  </g>
</svg>