<?xml version="1.0" encoding="UTF-8"?>
<svg id="Layer_1" data-name="Layer 1" xmlns="http://www.w3.org/2000/svg" viewBox="0 0 241 241">
  <defs>
    <style>
      .cls-1 {
        fill: #0b0b0b;
      }

      .cls-2 {
        fill: #fff;
      }
    </style>
  </defs>
  <circle class="cls-1" cx="120.5" cy="120.5" r="120"/>
  <path class="cls-2" d="M51.33,191.55c18.9-33.25,37.8-66.56,54.24-101.1,5.27-11.48,10.68-23.16,13.74-35.41.58-2.13.71-5.32,2.91-6.79,4.32-1.94,5.14,9.42,5.72,12,.94,6.36,1.53,12.72,2.16,19.07,2.67,21.38,6.45,105.05,28.58,110.76,9.91,1.67,20.04-9.09,26.07-16.04,8.03-9.67,14.54-20.72,19.15-32.42,4.92-12.55,10.57-35.08-8.12-38.19-19.4-2.98-45.8,6.9-64.31,13.38-35.82,13.42-70.44,29.81-104.85,46.5,45.49-22.93,91.25-46.86,140.72-60.04,13.94-3.1,38.7-8.19,43.35,10.54,3.04,15.1-5.37,33.31-12.68,46.19-7.1,12.32-28.48,41.97-44.85,30.76-19.78-14.79-22.75-85.82-25.64-111.21-.59-6.34-1.21-12.69-2.04-18.96-.55-3.35-.93-7.54-2.45-10.24.1.03.24,0,.26-.02-.21.12-.36.51-.54.84-.58,1.28-.84,2.77-1.23,4.38-1.57,6.31-3.89,12.3-6.34,18.22-17.86,41-41.04,79.39-63.85,117.77h0Z"/>
  <path class="cls-2" d="M210.06,193.68c2.41,0,2.42-3.75,0-3.75s-2.42,3.75,0,3.75h0Z"/>
</svg>