<?xml version="1.0" encoding="UTF-8"?>
<svg id="Layer_1" data-name="Layer 1" xmlns="http://www.w3.org/2000/svg" viewBox="0 0 52.23 71.4">
  <defs>
    <style>
      .cls-1 {
        fill: #fff;
        stroke: #231f20;
        stroke-miterlimit: 10;
      }
    </style>
  </defs>
  <path class="cls-1" d="M51.14,63.72l-10.82,5.96c-3.46,1.91-7.75,1.57-10.84-.89C12.54,55.28,2.9,37.77.56,16.24c-.43-3.93,1.58-7.73,5.05-9.64L16.43.64c.61-.34,1.38-.04,1.61.61l5.29,15.06c.18.52-.04,1.1-.52,1.36l-6.17,3.4c1.22,14.04,6.87,24.66,17.36,31.54l6.17-3.4c.48-.27,1.09-.14,1.43.29l9.89,12.53c.43.55.27,1.35-.34,1.69Z"/>
</svg>